{
	"patcher" : 	{
		"fileversion" : 1,
		"appversion" : 		{
			"major" : 8,
			"minor" : 1,
			"revision" : 0,
			"architecture" : "x64",
			"modernui" : 1
		}
,
		"classnamespace" : "box",
		"rect" : [ 34.0, 79.0, 1297.0, 937.0 ],
		"bglocked" : 0,
		"openinpresentation" : 1,
		"default_fontsize" : 12.0,
		"default_fontface" : 0,
		"default_fontname" : "Arial",
		"gridonopen" : 1,
		"gridsize" : [ 15.0, 15.0 ],
		"gridsnaponopen" : 1,
		"objectsnaponopen" : 1,
		"statusbarvisible" : 2,
		"toolbarvisible" : 1,
		"lefttoolbarpinned" : 0,
		"toptoolbarpinned" : 0,
		"righttoolbarpinned" : 0,
		"bottomtoolbarpinned" : 0,
		"toolbars_unpinned_last_save" : 0,
		"tallnewobj" : 0,
		"boxanimatetime" : 200,
		"enablehscroll" : 1,
		"enablevscroll" : 1,
		"devicewidth" : 0.0,
		"description" : "",
		"digest" : "",
		"tags" : "",
		"style" : "",
		"subpatcher_template" : "",
		"boxes" : [ 			{
				"box" : 				{
					"comment" : "Dictionaries Through",
					"id" : "obj-6",
					"index" : 0,
					"maxclass" : "outlet",
					"numinlets" : 1,
					"numoutlets" : 0,
					"patching_rect" : [ 291.482177734375, 157.0, 30.0, 30.0 ],
					"tricolor" : [ 0.250980392156863, 0.203921568627451, 0.937254901960784, 1.0 ]
				}

			}
, 			{
				"box" : 				{
					"comment" : "Control Through",
					"id" : "obj-5",
					"index" : 0,
					"maxclass" : "outlet",
					"numinlets" : 1,
					"numoutlets" : 0,
					"patching_rect" : [ 403.482177734375, 157.0, 30.0, 30.0 ],
					"tricolor" : [ 1.0, 0.709803921568627, 0.196078431372549, 1.0 ]
				}

			}
, 			{
				"box" : 				{
					"comment" : "Data Through",
					"id" : "obj-4",
					"index" : 0,
					"maxclass" : "inlet",
					"numinlets" : 0,
					"numoutlets" : 1,
					"outlettype" : [ "" ],
					"patching_rect" : [ 541.482177734375, 99.0, 30.0, 30.0 ],
					"tricolor" : [ 0.0, 0.854901960784314, 0.282352941176471, 1.0 ]
				}

			}
, 			{
				"box" : 				{
					"comment" : "Control In",
					"id" : "obj-3",
					"index" : 0,
					"maxclass" : "inlet",
					"numinlets" : 0,
					"numoutlets" : 1,
					"outlettype" : [ "" ],
					"patching_rect" : [ 403.482177734375, 99.0, 30.0, 30.0 ],
					"tricolor" : [ 1.0, 0.709803921568627, 0.196078431372549, 1.0 ]
				}

			}
, 			{
				"box" : 				{
					"comment" : "Data Out",
					"id" : "obj-2",
					"index" : 0,
					"maxclass" : "outlet",
					"numinlets" : 1,
					"numoutlets" : 0,
					"patching_rect" : [ 541.482177734375, 162.9000244140625, 30.0, 30.0 ],
					"tricolor" : [ 0.0, 0.854901960784314, 0.282352941176471, 1.0 ]
				}

			}
, 			{
				"box" : 				{
					"comment" : "Dictionaries In",
					"id" : "obj-1",
					"index" : 0,
					"maxclass" : "inlet",
					"numinlets" : 0,
					"numoutlets" : 1,
					"outlettype" : [ "" ],
					"patching_rect" : [ 291.482177734375, 99.0, 30.0, 30.0 ],
					"tricolor" : [ 0.250980392156863, 0.203921568627451, 0.937254901960784, 1.0 ]
				}

			}
, 			{
				"box" : 				{
					"activebgcolor" : [ 0.156862745098039, 0.156862745098039, 0.156862745098039, 1.0 ],
					"bordercolor" : [ 1.0, 0.709803921568627, 0.196078431372549, 1.0 ],
					"id" : "obj-137",
					"maxclass" : "live.menu",
					"numinlets" : 1,
					"numoutlets" : 3,
					"outlettype" : [ "", "", "float" ],
					"parameter_enable" : 1,
					"patching_rect" : [ 681.482177734375, 287.0, 72.0, 15.0 ],
					"presentation" : 1,
					"presentation_rect" : [ 64.516795000000002, -0.596054, 15.0, 15.0 ],
					"saved_attribute_attributes" : 					{
						"valueof" : 						{
							"parameter_enum" : [ "tri", "blackman", "expmod", "gauss", "hanning", "trapez10", "trapez20", "trapez30", "expdec" ],
							"parameter_type" : 2,
							"parameter_linknames" : 1,
							"parameter_longname" : "#0_window_function",
							"parameter_invisible" : 2,
							"parameter_mmax" : 8,
							"parameter_initial" : [ 3.0 ],
							"parameter_order" : 5,
							"parameter_shortname" : "Window"
						}

					}
,
					"textcolor" : [ 1.0, 0.709803921568627, 0.196078431372549, 1.0 ],
					"tricolor" : [ 1.0, 0.709803921568627, 0.196078431372549, 1.0 ],
					"varname" : "#0_window_function"
				}

			}
, 			{
				"box" : 				{
					"id" : "obj-190",
					"maxclass" : "comment",
					"numinlets" : 1,
					"numoutlets" : 0,
					"patching_rect" : [ 697.482177734375, 212.5, 76.0, 20.0 ],
					"text" : "Grain Shape"
				}

			}
, 			{
				"box" : 				{
					"color" : [ 0.0, 0.854901960784314, 0.282352941176471, 1.0 ],
					"fontsize" : 12.0,
					"id" : "obj-232",
					"maxclass" : "newobj",
					"numinlets" : 1,
					"numoutlets" : 1,
					"outlettype" : [ "" ],
					"patching_rect" : [ 681.482177734375, 339.0, 101.0, 22.0 ],
					"text" : "prepend current"
				}

			}
, 			{
				"box" : 				{
					"id" : "obj-22",
					"maxclass" : "newobj",
					"numinlets" : 1,
					"numoutlets" : 1,
					"outlettype" : [ "" ],
					"patching_rect" : [ 681.482177734375, 190.5, 72.0, 22.0 ],
					"text" : "prepend set"
				}

			}
, 			{
				"box" : 				{
					"buffername" : "---default_envbuf.1",
					"id" : "obj-24",
					"ignoreclick" : 1,
					"labels" : 0,
					"maxclass" : "waveform~",
					"numinlets" : 5,
					"numoutlets" : 6,
					"outlettype" : [ "float", "float", "float", "float", "list", "" ],
					"patching_rect" : [ 681.482177734375, 232.0, 99.0, 49.0 ],
					"presentation" : 1,
					"presentation_rect" : [ -1.483205, 0.403946, 80.0, 64.0 ],
					"quiet" : 1,
					"ruler" : 0,
					"setmode" : 1,
					"voffset" : 1.0,
					"vticks" : 0,
					"vzoom" : 0.5,
					"waveformcolor" : [ 1.0, 0.709803921568627, 0.196078431372549, 1.0 ]
				}

			}
, 			{
				"box" : 				{
					"id" : "obj-8",
					"maxclass" : "message",
					"numinlets" : 2,
					"numoutlets" : 1,
					"outlettype" : [ "" ],
					"patching_rect" : [ 681.482177734375, 312.0, 91.0, 22.0 ],
					"text" : "grain_shape $1"
				}

			}
, 			{
				"box" : 				{
					"id" : "obj-124",
					"maxclass" : "newobj",
					"numinlets" : 1,
					"numoutlets" : 1,
					"outlettype" : [ "" ],
					"patching_rect" : [ 681.482177734375, 166.9000244140625, 162.0, 22.0 ],
					"text" : "dict.unpack envbuffer_name:"
				}

			}
 ],
		"lines" : [ 			{
				"patchline" : 				{
					"color" : [ 0.000110864639282, 0.001760244369507, 0.998218417167664, 1.0 ],
					"destination" : [ "obj-124", 0 ],
					"order" : 0,
					"source" : [ "obj-1", 0 ]
				}

			}
, 			{
				"patchline" : 				{
					"color" : [ 0.000110864639282, 0.001760244369507, 0.998218417167664, 1.0 ],
					"destination" : [ "obj-6", 0 ],
					"order" : 1,
					"source" : [ "obj-1", 0 ]
				}

			}
, 			{
				"patchline" : 				{
					"destination" : [ "obj-22", 0 ],
					"source" : [ "obj-124", 0 ]
				}

			}
, 			{
				"patchline" : 				{
					"destination" : [ "obj-8", 0 ],
					"source" : [ "obj-137", 1 ]
				}

			}
, 			{
				"patchline" : 				{
					"destination" : [ "obj-24", 0 ],
					"source" : [ "obj-22", 0 ]
				}

			}
, 			{
				"patchline" : 				{
					"color" : [ 0.131344810128212, 0.999677240848541, 0.023624084889889, 1.0 ],
					"destination" : [ "obj-2", 0 ],
					"source" : [ "obj-232", 0 ]
				}

			}
, 			{
				"patchline" : 				{
					"color" : [ 0.999996185302734, 0.99993908405304, 0.041033305227757, 1.0 ],
					"destination" : [ "obj-5", 0 ],
					"source" : [ "obj-3", 0 ]
				}

			}
, 			{
				"patchline" : 				{
					"color" : [ 0.131344810128212, 0.999677240848541, 0.023624084889889, 1.0 ],
					"destination" : [ "obj-2", 0 ],
					"source" : [ "obj-4", 0 ]
				}

			}
, 			{
				"patchline" : 				{
					"destination" : [ "obj-232", 0 ],
					"source" : [ "obj-8", 0 ]
				}

			}
 ],
		"parameters" : 		{
			"obj-137" : [ "#0_window_function", "Window", 5 ],
			"parameterbanks" : 			{

			}

		}
,
		"dependency_cache" : [  ],
		"autosave" : 0
	}

}
